<svg version="1.2" xmlns="http://www.w3.org/2000/svg" viewBox="0 0 1557 868" width="1557" height="868">
	<title>sage-logo-green-svg</title>
	<style>
		.s0 { fill: #00d639 } 
	</style>
	<path id="Layer" class="s0" d="m175.3 0c-99.6 0-175.3 75.4-175.3 172.2 0 106.1 75.7 147.1 159.6 172.3 79.4 25.1 117.1 53 117.1 108 0 55.9-41.6 95.1-95.9 95.1-54.5 0-101.6-39.2-101.6-99.6 0-33.5 15.7-42 15.7-60.6 0-21.4-14.7-37.2-38.8-37.2-27.5 0-56.1 42-56.1 101.6 0 96 82.2 166.6 180.8 166.6 99.6 0 175.3-75.4 175.3-172.2 0-105.3-75.7-147.1-160.4-172.2-78.4-24.2-116.3-53.1-116.3-108.1 0-54.8 40.6-94 94.9-94 56.3 0 101.6 40 102.4 95 0.9 25.1 18.4 40 38.8 40 21.2 0 40.6-14.9 39.6-42-1.8-96-82-164.9-179.8-164.9zm400.4 617.5c44.3 0 78.4-14.9 78.4-44.8 0-22.4-18.4-37.2-36.1-37.2-12.9 0-22.1 5.5-43.3 5.5-57.3 0-102.4-49.3-102.4-107.1 0-62.3 46.1-111.8 104.3-111.8 65.5 0 107.1 50.3 107.1 122.9v133.3c0 23.3 18.4 39.2 40.6 39.2 21.2 0 39.6-15.9 39.6-39.2v-136c0-111.7-76.5-193.7-185.5-193.7-101.6 0-185.5 79.2-185.5 185.3 0 102.6 83.2 183.6 182.8 183.6zm405.8 249.6c99.6 0 175.3-75.4 175.3-172.2 0-106.2-75.7-147.1-160.4-172.3-78.4-25.1-116.2-53-116.2-108.1 0-55 41.5-95 94.9-95 54.5 0 102.3 39.2 102.3 99.6 0 33.6-15.7 42-15.7 60.6 0 21.3 14.7 37.2 37.9 37.2 28.6 0 57.2-42 57.2-101.6 0-96-82.9-166.7-181.7-166.7-99.6 0-174.3 75.5-174.3 172.3 0 105.3 74.7 147.1 159.6 172.2 79.4 24.2 117 53.1 117 108.1 0 55.8-41.6 94-94.9 94-57.2 0-101.6-39-102.3-95-1-25.1-19.4-39.2-38.9-39.2-21.1 0-40.5 14.1-39.6 41 0.8 97.2 81 165.1 179.8 165.1zm400.4-249.6c51.6 0 92.4-14.9 120.8-32.7 27.6-17.6 38.6-32.7 38.6-49.3 0-17.6-12.9-33.5-36.8-33.5-28.7 0-51.6 42.8-121.8 42.8-61.8 0-110.8-49.3-110.8-111.7 0-61.5 47.1-111.8 106.1-111.8 63.7 0 97.8 42 97.8 68.9 0 7.5-5.5 11.3-12.9 11.3h-77.5c-21.1 0-36.8 14-36.8 32.6 0 20.4 15.7 35.5 36.8 35.5h106.1c40.6 0 65.5-21.4 65.5-57.8 0-91.3-77.4-163-180-163-101.6 0-183.5 82-183.5 184.3 0 102.4 85.1 184.4 188.4 184.4z"/>
</svg>