<svg xmlns="http://www.w3.org/2000/svg" viewBox="0 0 200 36" fill="none">
  <defs>
    <style>
      .navy { fill: #202654; }
      .purple { fill: #6945D8; }
    </style>
  </defs>
  
  <!-- N-Mark: Geometric Abstract N with 2 solid diagonal strokes -->
  <g>
    <!-- Left diagonal stroke -->
    <polygon class="navy" points="0,36 0,0 7,0 7,22 24,0 32,0 10,28 10,36"/>
    <!-- Right diagonal stroke -->
    <polygon class="navy" points="24,36 24,14 7,36 0,36 22,8 22,0 32,0 32,36"/>
    <!-- Purple accent triangle - top right -->
    <polygon class="purple" points="28,0 32,0 32,5"/>
  </g>
  
  <!-- Wordmark: NIMARA - Clean geometric sans, slightly expanded tracking -->
  <g transform="translate(46, 0)">
    <!-- N -->
    <path class="navy" d="M0,8 L0,28 L3.5,28 L3.5,14 L12,28 L16,28 L16,8 L12.5,8 L12.5,22 L4,8 Z"/>
    <!-- I -->
    <path class="navy" d="M21,8 L21,28 L24.5,28 L24.5,8 Z"/>
    <!-- M -->
    <path class="navy" d="M29,8 L29,28 L32.5,28 L32.5,14 L38,24 L43.5,14 L43.5,28 L47,28 L47,8 L43,8 L38,18 L33,8 Z"/>
    <!-- A -->
    <path class="navy" d="M51,28 L55,8 L60,8 L64,28 L60.5,28 L59.5,24 L55.5,24 L54.5,28 Z M56.5,21 L58.5,21 L57.5,14 Z"/>
    <!-- R -->
    <path class="navy" d="M68,8 L68,28 L71.5,28 L71.5,20 L74,20 L77,28 L81,28 L77.5,19 C79,18.5 80,17 80,15 C80,11 77.5,8 74,8 Z M71.5,11 L74,11 C75.5,11 76.5,12.5 76.5,14.5 C76.5,16.5 75.5,17.5 74,17.5 L71.5,17.5 Z"/>
    <!-- A -->
    <path class="navy" d="M84,28 L88,8 L93,8 L97,28 L93.5,28 L92.5,24 L88.5,24 L87.5,28 Z M89.5,21 L91.5,21 L90.5,14 Z"/>
  </g>
</svg>