<svg xmlns="http://www.w3.org/2000/svg" viewBox="0 0 220 40" fill="none">
  <defs>
    <style>
      .navy { fill: #141A3A; }
      .purple { fill: #6B3FA0; }
    </style>
  </defs>
  
  <!-- ICON: Square with two parallel 45° diagonal bands + purple corner wedge -->
  <g>
    <!-- First diagonal band (upper-left area) -->
    <polygon class="navy" points="0,0 16,0 0,16"/>
    <polygon class="navy" points="0,16 0,28 16,12 16,0"/>
    
    <!-- Second diagonal band (lower-right area) -->
    <polygon class="navy" points="12,40 40,12 40,0 24,0 24,12 12,24"/>
    <polygon class="navy" points="12,40 24,40 40,24 40,12"/>
    <polygon class="navy" points="24,40 40,40 40,24"/>
    
    <!-- Purple accent wedge - top-right corner, hypotenuse at 45° -->
    <polygon class="purple" points="32,0 40,0 40,8"/>
  </g>
  
  <!-- WORDMARK: NIMARA - Institutional serif, expanded tracking -->
  <g>
    <!-- N -->
    <path class="navy" d="M54,8 L54,32 L58,32 L58,15 L70,32 L75,32 L75,8 L71,8 L71,25 L59,8 Z"/>
    <!-- I -->
    <path class="navy" d="M82,8 L82,32 L86,32 L86,8 Z"/>
    <!-- M -->
    <path class="navy" d="M93,8 L93,32 L97,32 L97,15 L104,27 L111,15 L111,32 L115,32 L115,8 L110,8 L104,19 L98,8 Z"/>
    <!-- A -->
    <path class="navy" d="M122,32 L127,8 L133,8 L138,32 L134,32 L132.5,26 L127.5,26 L126,32 Z M128.5,22.5 L131.5,22.5 L130,13 Z"/>
    <!-- R -->
    <path class="navy" d="M144,8 L144,32 L148,32 L148,22 L152,22 L156,32 L161,32 L156.5,21.5 C159,20.5 160.5,18 160.5,15 C160.5,11 157.5,8 153,8 Z M148,11.5 L152.5,11.5 C155,11.5 156.5,13 156.5,15.5 C156.5,18 155,19 152.5,19 L148,19 Z"/>
    <!-- A -->
    <path class="navy" d="M167,32 L172,8 L178,8 L183,32 L179,32 L177.5,26 L172.5,26 L171,32 Z M173.5,22.5 L176.5,22.5 L175,13 Z"/>
  </g>
</svg>