<svg xmlns="http://www.w3.org/2000/svg" viewBox="0 0 280 44" fill="none">
  <defs>
    <style>
      .navy { fill: #202654; }
      .mint { fill: #acfce3; }
    </style>
  </defs>
  <!-- N-Mark: Mint rounded square with navy N -->
  <g transform="translate(0, 0)">
    <rect class="mint" x="0" y="0" width="44" height="44" rx="4" ry="4"/>
    <g transform="translate(7, 6) scale(0.136)">
      <!-- Bottom stroke of N -->
      <path class="navy" d="M136.68,135.86c.19-.28-.24.24,0,0,14.08-14.08.51-79.45.51-79.45,0-8.84,7.26-16,16.22-16h0c8.96,0,16.22,7.17,16.22,16v120.09c0,8.84-7.26,16-16.22,16h-3.42c-5.33,0-10.32-2.58-13.35-6.9,0,0-49.6-49.27-60.25-79.05-1.28-3.59,2.72-6.76,5.93-4.7,0,0,45.73,47.19,54.35,34.02Z"/>
      <!-- Top stroke of N -->
      <path class="navy" d="M68.11,83.29c-.25.14-.65.4-.87.58-15.7,12.25,0,79.65,0,79.65,0,8.88-7.3,16.08-16.3,16.08h0c-9,0-16.3-7.2-16.3-16.08v-119.94c0-8.88,7.3-16.08,16.3-16.08h3.73c5.37,0,10.4,2.61,13.44,6.98,0,0,49.15,49.22,59.71,78.92,1.28,3.59-2.73,6.75-5.93,4.7,0,0-39.85-42.43-53.78-34.8Z"/>
    </g>
  </g>
  <!-- Wordmark: NIMARA -->
  <g transform="translate(54, 0) scale(0.135)">
    <path class="navy" d="M732.36,378.94h-26.57l-63.29-91.56h-1.07v91.56h-30.76v-145.47h26.99l62.79,91.49h1.28v-91.49h30.61v145.47Z" transform="translate(-641, -233)"/>
    <path class="navy" d="M754,240.43c0-8.38,7.39-15.27,16.34-15.27s16.41,6.89,16.41,15.27-7.39,15.34-16.41,15.34-16.34-6.89-16.34-15.34ZM755.13,269.84h30.26v109.1h-30.26v-109.1Z" transform="translate(-641, -233)"/>
    <path class="navy" d="M807.54,269.84h28.84v19.25h1.28c4.55-12.86,15.7-20.67,30.4-20.67s26.14,8.03,29.62,20.67h1.14c4.47-12.5,16.9-20.67,32.89-20.67,20.31,0,34.38,13.5,34.38,37.15v73.37h-30.19v-67.41c0-12.15-7.25-18.18-16.91-18.18-11.01,0-17.47,7.67-17.47,18.96v66.63h-29.33v-68.05c0-10.73-6.68-17.54-16.62-17.54s-17.76,8.03-17.76,20.1v65.49h-30.26v-109.1Z" transform="translate(-641, -233)"/>
    <path class="navy" d="M982.81,348.47c0-24.36,19.39-31.61,40.98-33.6,18.96-1.85,26.42-2.77,26.42-9.8v-.43c0-8.95-5.9-14.14-16.2-14.14-10.87,0-17.33,5.33-19.39,12.57l-27.99-2.27c4.19-19.89,21.38-32.39,47.52-32.39,24.29,0,46.31,10.94,46.31,36.94v73.59h-28.7v-15.13h-.85c-5.33,10.16-15.77,17.19-31.89,17.19-20.81,0-36.22-10.94-36.22-32.53ZM1050.43,339.95v-11.58c-3.62,2.42-14.42,3.98-21.02,4.9-10.65,1.49-17.69,5.68-17.69,14.21s6.68,12.64,15.98,12.64c13.28,0,22.73-8.74,22.73-20.17Z" transform="translate(-641, -233)"/>
    <path class="navy" d="M1101.98,269.84h29.33v19.04h1.14c3.98-13.5,13.92-20.6,26.21-20.6,5.82,0,10.94,1.56,14.92,3.98l-9.09,25c-2.84-1.42-6.18-2.56-10.3-2.56-12.22,0-21.88,9.16-21.95,22.52v61.73h-30.26v-109.1Z" transform="translate(-641, -233)"/>
    <path class="navy" d="M1177.54,348.47c0-24.36,19.39-31.61,40.98-33.6,18.96-1.85,26.42-2.77,26.42-9.8v-.43c0-8.95-5.9-14.14-16.2-14.14-10.87,0-17.33,5.33-19.39,12.57l-27.99-2.27c4.19-19.89,21.38-32.39,47.52-32.39,24.29,0,46.31,10.94,46.31,36.94v73.59h-28.7v-15.13h-.85c-5.33,10.16-15.77,17.19-31.89,17.19-20.81,0-36.22-10.94-36.22-32.53ZM1245.16,339.95v-11.58c-3.62,2.42-14.42,3.98-21.02,4.9-10.65,1.49-17.69,5.68-17.69,14.21s6.68,12.64,15.98,12.64c13.28,0,22.73-8.74,22.73-20.17Z" transform="translate(-641, -233)"/>
  </g>
</svg>